<?xml version="1.0" standalone="no"?>
<!DOCTYPE svg PUBLIC "-//W3C//DTD SVG 20010904//EN"
 "http://www.w3.org/TR/2001/REC-SVG-20010904/DTD/svg10.dtd">
<svg version="1.0" xmlns="http://www.w3.org/2000/svg"
 width="5500.000000pt" height="4500.000000pt" viewBox="0 0 5500.000000 4500.000000"
 preserveAspectRatio="xMidYMid meet">

<g transform="translate(0.000000,4500.000000) scale(0.100000,-0.100000)"
fill="#000000" stroke="none">
<path d="M20544 40793 c-28 -5 -263 -124 -364 -183 -197 -116 -260 -155 -260
-162 0 -4 -5 -8 -12 -8 -6 0 -35 -18 -64 -40 -29 -22 -58 -40 -63 -40 -6 0
-14 -6 -18 -13 -4 -8 -23 -24 -42 -38 -43 -30 -77 -58 -106 -85 -11 -12 -26
-23 -32 -25 -46 -18 -367 -336 -498 -494 -28 -33 -52 -62 -55 -65 -3 -3 -17
-21 -30 -40 -13 -19 -27 -37 -30 -40 -4 -3 -22 -27 -40 -55 -19 -27 -37 -51
-42 -53 -4 -2 -8 -10 -8 -17 0 -7 -3 -15 -7 -17 -15 -6 -153 -230 -153 -247 0
-5 -4 -11 -9 -13 -4 -1 -25 -34 -45 -73 -20 -38 -41 -77 -46 -85 -9 -14 -92
-193 -109 -235 -5 -11 -13 -31 -19 -45 -10 -22 -59 -146 -81 -205 -18 -47 -44
-124 -59 -175 -9 -30 -19 -57 -22 -60 -4 -3 -10 -18 -13 -35 -3 -16 -19 -84
-37 -150 -34 -135 -47 -190 -60 -255 -5 -25 -18 -92 -30 -150 -11 -58 -25
-134 -29 -170 -13 -104 -39 -336 -51 -460 -18 -185 -24 -767 -11 -1040 19
-385 30 -575 41 -705 13 -154 33 -421 60 -805 39 -557 29 -1179 -25 -1485 -38
-216 -82 -416 -105 -470 -4 -11 -15 -42 -23 -70 -26 -82 -46 -138 -66 -180
-11 -22 -27 -58 -36 -80 -34 -80 -118 -244 -138 -270 -4 -5 -30 -44 -57 -85
-27 -41 -56 -84 -64 -95 -8 -11 -31 -42 -50 -70 -20 -27 -62 -79 -93 -115 -94
-105 -377 -383 -471 -462 -18 -15 -32 -31 -32 -37 0 -6 -4 -11 -9 -11 -6 0
-23 -12 -38 -26 -15 -15 -61 -56 -101 -93 -41 -36 -105 -96 -144 -133 -38 -38
-72 -68 -75 -68 -3 0 -35 -29 -72 -64 -124 -120 -186 -176 -193 -176 -5 0 -8
-7 -8 -15 0 -8 -4 -15 -9 -15 -31 0 -623 -603 -701 -714 -8 -12 -24 -30 -35
-41 -31 -31 -130 -157 -145 -185 -7 -14 -16 -27 -19 -30 -30 -24 -44 -69 -46
-152 -1 -57 2 -87 9 -85 11 4 53 71 63 100 3 9 8 17 12 17 3 0 17 18 31 40 14
22 28 40 32 40 5 0 8 5 8 11 0 6 10 23 23 38 12 15 33 42 47 61 14 18 40 49
57 69 18 20 33 39 33 42 0 4 19 26 43 50 23 24 65 71 93 104 111 130 713 714
737 715 4 0 7 7 7 15 0 8 4 15 10 15 5 0 22 12 38 28 16 15 73 68 127 117 110
101 210 193 265 245 21 19 89 82 151 140 150 138 409 398 409 410 0 10 19 36
50 69 29 30 85 106 99 132 7 14 25 41 41 58 15 18 36 50 47 70 29 54 47 85 53
91 12 12 70 133 70 146 0 8 5 14 10 14 6 0 10 7 10 16 0 9 8 28 18 42 10 15
24 47 32 72 7 25 17 49 22 54 4 6 8 20 8 33 0 13 4 23 8 23 5 0 14 19 20 43 6
23 20 69 31 101 12 33 21 67 21 77 0 10 5 21 10 24 6 3 10 17 10 31 0 13 9 57
19 97 48 180 77 382 96 672 24 348 14 756 -34 1425 -78 1074 -84 1195 -84
1605 -1 372 10 621 33 785 5 36 14 106 20 155 17 137 29 216 60 375 32 160 95
424 110 455 5 11 15 40 21 65 5 25 13 55 16 68 3 12 9 22 13 22 4 0 10 16 13
34 3 19 12 50 20 68 32 76 77 195 77 206 0 7 5 12 10 12 6 0 10 6 10 14 0 8 9
31 19 53 10 21 49 99 85 173 66 135 114 226 129 245 4 6 43 64 86 130 81 125
231 328 263 356 10 9 18 19 18 22 0 22 399 417 421 417 5 0 9 4 9 8 0 5 29 30
65 56 36 26 65 51 65 54 0 4 18 18 40 32 22 14 40 28 40 32 0 5 4 8 10 8 8 0
97 56 110 70 3 3 31 21 63 40 31 19 57 38 57 42 0 4 5 8 10 8 9 0 49 22 153
84 90 53 371 189 467 226 19 7 39 17 45 22 5 4 18 8 30 9 17 1 16 2 -5 9 -26
8 -198 11 -236 3z"/>
<path d="M21490 40349 c-108 -27 -183 -48 -280 -79 -47 -15 -104 -33 -127 -40
-24 -7 -43 -17 -43 -22 0 -4 -10 -8 -23 -8 -13 0 -32 -7 -43 -15 -10 -8 -25
-15 -32 -15 -6 0 -35 -11 -64 -25 -28 -14 -58 -25 -65 -25 -7 0 -13 -4 -13
-10 0 -5 -8 -10 -18 -10 -10 0 -22 -4 -27 -9 -18 -17 -85 -51 -100 -51 -8 0
-15 -3 -15 -8 0 -4 -17 -15 -37 -24 -35 -16 -83 -43 -108 -60 -5 -5 -46 -31
-90 -60 -44 -29 -82 -55 -85 -58 -3 -3 -21 -17 -40 -30 -43 -30 -56 -40 -81
-62 -10 -10 -21 -18 -23 -18 -25 0 -442 -424 -455 -462 -2 -7 -15 -24 -28 -38
-13 -14 -41 -50 -61 -80 -20 -30 -39 -57 -42 -60 -3 -3 -17 -21 -30 -40 -13
-19 -27 -37 -30 -40 -3 -3 -16 -25 -29 -50 -23 -42 -60 -99 -71 -110 -3 -3
-11 -16 -17 -30 -7 -14 -28 -52 -48 -85 -19 -33 -40 -71 -46 -85 -25 -59 -43
-96 -54 -110 -7 -8 -20 -37 -30 -65 -10 -27 -22 -54 -27 -59 -4 -6 -8 -18 -8
-27 0 -10 -4 -19 -8 -21 -4 -1 -27 -52 -50 -113 -24 -60 -49 -125 -57 -143 -8
-18 -15 -37 -15 -43 0 -6 -6 -25 -14 -42 -25 -57 -76 -203 -76 -216 0 -8 -9
-39 -19 -70 -10 -31 -27 -85 -36 -121 -16 -58 -25 -92 -56 -196 -5 -17 -9 -43
-9 -57 0 -15 -4 -35 -9 -45 -5 -9 -14 -46 -21 -82 -7 -36 -19 -96 -26 -135
-35 -183 -73 -535 -84 -780 -12 -270 -2 -751 20 -976 23 -225 41 -409 50 -514
6 -60 15 -146 20 -190 5 -44 16 -147 24 -230 9 -82 20 -186 26 -230 49 -396
76 -880 65 -1155 -4 -96 -7 -187 -6 -202 1 -15 -11 -105 -25 -200 -14 -95 -28
-189 -31 -208 -2 -19 -8 -44 -13 -55 -5 -11 -11 -36 -15 -55 -3 -19 -8 -50
-12 -67 -3 -18 -9 -33 -14 -33 -5 0 -9 -10 -9 -22 0 -22 -19 -82 -31 -103 -4
-5 -12 -34 -20 -62 -7 -29 -16 -53 -21 -53 -4 0 -8 -7 -8 -15 0 -8 -4 -23 -9
-33 -42 -82 -71 -147 -71 -158 0 -8 -4 -14 -10 -14 -5 0 -10 -7 -10 -16 0 -8
-13 -35 -30 -59 -16 -24 -30 -46 -30 -50 0 -3 -8 -18 -19 -33 -10 -15 -40 -61
-67 -102 -27 -41 -51 -77 -54 -80 -3 -3 -23 -27 -45 -55 -22 -27 -47 -58 -55
-69 -63 -78 -176 -193 -334 -341 -54 -49 -135 -127 -182 -172 -46 -46 -87 -83
-89 -83 -4 0 -61 -51 -140 -125 -23 -22 -89 -83 -146 -135 -57 -52 -125 -115
-150 -140 -46 -44 -173 -160 -216 -198 -13 -11 -23 -24 -23 -31 0 -6 -5 -11
-10 -11 -15 0 -390 -373 -390 -388 0 -7 -7 -12 -15 -12 -8 0 -15 -3 -15 -7 0
-5 -22 -31 -48 -59 -26 -28 -67 -75 -92 -104 -25 -29 -60 -69 -77 -89 -18 -20
-33 -41 -33 -48 0 -6 -4 -13 -8 -15 -12 -5 -112 -136 -112 -147 0 -5 -4 -11
-8 -13 -10 -4 -72 -94 -72 -104 0 -4 -6 -15 -14 -23 -17 -20 -102 -185 -139
-271 -16 -36 -35 -80 -43 -98 -8 -18 -14 -37 -14 -43 0 -6 -6 -25 -14 -42 -7
-18 -19 -52 -26 -77 -7 -25 -16 -54 -20 -65 -17 -45 -59 -305 -60 -370 0 -22
12 -44 45 -80 l44 -50 1 36 c1 78 67 452 89 504 5 11 19 49 31 85 12 36 26 74
30 85 5 11 23 54 40 96 17 42 44 97 60 123 17 26 30 51 30 55 0 5 20 40 45 78
58 88 62 95 112 162 23 31 43 60 43 64 0 4 10 18 23 30 13 12 32 34 44 49 41
54 206 240 281 315 28 29 52 55 52 57 0 5 120 126 125 126 2 0 47 42 99 93 52
50 146 139 207 197 62 58 139 130 170 160 32 30 71 66 87 80 33 28 229 209
303 280 26 25 72 68 104 95 31 28 94 87 141 133 46 45 87 82 89 82 6 0 195
189 195 195 0 2 12 17 28 33 55 58 92 102 92 109 0 5 15 25 34 45 18 20 52 67
76 105 24 37 61 95 82 128 41 64 155 290 183 365 10 25 24 59 31 77 8 17 14
38 14 47 0 9 4 16 9 16 5 0 11 15 14 33 3 17 17 75 31 127 37 134 73 316 93
477 21 173 25 809 6 1001 -7 67 -18 175 -24 240 -5 64 -19 200 -29 302 -11
102 -27 253 -35 335 -8 83 -22 209 -31 280 -56 472 -76 831 -71 1265 5 410 17
551 77 940 12 79 58 295 76 360 8 30 22 80 30 110 26 96 36 132 71 245 36 115
96 289 118 340 7 17 21 53 30 80 10 28 22 54 27 60 4 5 8 17 8 27 0 10 5 18
10 18 6 0 10 9 10 20 0 11 9 34 20 52 11 18 25 50 31 71 5 20 14 37 19 37 6 0
10 8 10 18 0 10 4 22 9 28 8 8 101 179 125 231 6 13 14 23 19 23 4 0 7 5 7 10
0 6 17 37 37 68 21 31 43 68 51 82 7 14 26 42 43 62 16 20 29 41 29 46 0 6 7
12 15 16 8 3 15 12 15 20 0 8 3 16 8 18 4 2 29 32 57 68 27 36 54 70 60 76 6
6 27 30 46 54 47 58 277 287 319 319 19 14 49 38 65 53 17 16 33 28 37 28 8 0
36 22 63 48 8 6 18 12 23 12 6 0 12 4 14 8 3 9 153 112 162 112 3 0 34 18 68
40 35 22 69 40 76 40 6 0 12 5 12 10 0 6 6 10 14 10 17 0 139 62 144 73 2 4 9
7 16 7 9 0 105 37 181 70 96 42 409 133 528 154 20 4 37 11 37 15 0 5 -17 27
-37 49 l-38 40 -75 -19z"/>
<path d="M21790 39990 c0 -5 -10 -19 -23 -32 -12 -13 -38 -43 -57 -68 -19 -25
-40 -49 -47 -53 -7 -4 -13 -13 -13 -18 0 -6 -6 -16 -12 -23 -19 -19 -48 -55
-88 -106 -19 -25 -40 -51 -48 -58 -7 -8 -25 -30 -40 -50 -15 -20 -34 -44 -42
-53 -8 -9 -42 -51 -75 -93 -33 -43 -79 -98 -102 -124 -24 -26 -43 -52 -43 -59
0 -6 -4 -13 -8 -15 -7 -2 -119 -136 -236 -282 -17 -21 -37 -45 -45 -53 -7 -8
-12 -16 -10 -18 2 -2 141 -8 309 -13 252 -7 310 -12 335 -25 17 -9 36 -17 42
-17 7 0 43 -12 80 -27 373 -149 684 -443 936 -883 44 -77 116 -231 157 -335
23 -60 46 -119 51 -130 100 -257 202 -798 211 -1128 l3 -88 75 -2 c125 -3 161
-45 181 -210 33 -263 -86 -582 -306 -822 -30 -33 -58 -71 -61 -85 -96 -411
-273 -804 -497 -1107 -100 -136 -304 -338 -424 -422 l-91 -64 -11 -76 c-6 -42
-18 -125 -27 -186 -25 -172 -30 -570 -10 -735 29 -240 82 -439 163 -615 92
-198 243 -404 380 -517 36 -29 71 -58 77 -63 26 -24 176 -115 236 -143 36 -16
97 -37 135 -46 214 -50 530 -149 700 -219 67 -27 262 -128 288 -149 84 -67
103 -88 134 -153 19 -38 70 -126 113 -195 44 -69 80 -129 80 -133 0 -4 8 -16
18 -27 9 -10 64 -94 121 -187 57 -92 131 -208 163 -256 32 -49 58 -90 58 -93
0 -2 15 -26 33 -52 18 -26 64 -99 102 -162 37 -63 71 -117 75 -120 4 -3 15
-21 26 -40 10 -19 21 -37 24 -40 3 -3 44 -67 90 -142 83 -135 85 -137 92 -105
20 92 38 202 48 287 6 52 16 132 22 177 19 143 -2 377 -53 593 -19 78 -83 268
-124 365 -36 85 -206 414 -236 457 -11 14 -19 30 -19 36 0 5 -6 15 -14 21 -8
7 -18 26 -21 42 -4 16 -10 29 -14 29 -4 0 -17 19 -30 43 -12 23 -32 58 -44 78
-42 68 -185 314 -213 367 -16 30 -44 81 -63 115 -72 132 -144 274 -162 322
-22 56 -84 288 -93 350 -4 22 -13 83 -22 135 -17 108 -18 120 -39 320 -42 419
-63 1187 -66 2425 -1 649 -16 1342 -34 1630 -19 298 -38 468 -76 675 -26 138
-85 353 -119 435 -5 11 -30 74 -56 140 -25 66 -57 141 -70 167 -13 26 -24 54
-24 63 0 8 -4 15 -8 15 -5 0 -23 30 -41 68 -43 91 -111 214 -137 249 -11 15
-29 44 -39 63 -10 19 -21 37 -25 40 -4 3 -20 25 -35 50 -110 175 -352 459
-521 610 -125 112 -315 260 -333 260 -5 0 -11 4 -13 8 -7 17 -164 107 -345
197 -71 35 -114 63 -118 75 -6 20 -35 28 -35 10z"/>
<path d="M20085 37069 c-130 -8 -172 -19 -181 -46 -4 -10 -19 -50 -35 -90 -16
-39 -29 -76 -29 -82 0 -7 55 -11 168 -11 92 0 209 -5 260 -10 229 -24 342 -11
392 47 67 76 21 143 -120 172 -51 10 -287 32 -320 29 -8 0 -69 -4 -135 -9z"/>
<path d="M21759 37071 c-72 -24 -108 -60 -109 -109 -1 -97 130 -171 258 -148
86 16 297 23 434 15 140 -8 353 -37 428 -59 46 -13 50 -13 50 7 0 53 -204 187
-355 234 -161 50 -232 60 -460 64 -121 3 -232 1 -246 -4z"/>
<path d="M21996 36479 c-3 -17 -6 -58 -6 -90 l0 -59 71 0 70 0 -6 -53 c-10
-76 20 -182 62 -220 26 -22 127 -34 149 -17 47 40 69 150 50 258 l-8 42 94 0
c99 0 118 7 118 45 0 23 34 15 -470 106 -58 10 -108 19 -111 19 -4 0 -9 -14
-13 -31z"/>
<path d="M20170 36478 c-363 -27 -350 -26 -350 -51 0 -12 4 -27 8 -32 4 -6 69
-18 146 -27 76 -9 140 -18 142 -20 1 -2 -2 -24 -7 -48 -6 -25 -9 -73 -6 -107
13 -176 159 -213 238 -61 20 38 40 144 32 165 -3 9 4 13 20 13 24 0 25 3 32
86 4 47 4 89 -1 93 -5 4 -119 -1 -254 -11z"/>
<path d="M31496 35834 c-9 -8 -16 -28 -16 -44 0 -65 -133 -60 1651 -60 1606 0
1619 0 1639 20 25 25 26 62 2 83 -17 16 -145 17 -1640 17 -1460 0 -1622 -2
-1636 -16z"/>
<path d="M37475 35403 c-56 -13 -201 -75 -215 -92 -3 -3 -22 -19 -42 -34 -69
-51 -108 -99 -102 -127 3 -20 3 -21 -4 -6 -7 17 -11 15 -32 -20 -13 -21 -27
-41 -30 -44 -3 -3 -17 -41 -31 -85 l-24 -80 -3 -553 c-3 -539 -2 -556 19 -640
33 -133 122 -267 226 -340 37 -26 47 -28 39 -6 -3 9 -2 12 5 9 6 -4 8 -13 5
-21 -6 -15 51 -47 67 -37 5 3 7 2 4 -4 -5 -8 39 -26 122 -49 7 -3 496 -4 1086
-4 1218 0 1147 -4 1287 83 79 49 148 108 148 126 0 6 4 11 8 11 8 0 38 47 42
65 1 6 13 22 25 37 25 30 51 108 66 197 5 31 9 282 9 557 0 424 -3 514 -16
580 -39 188 -158 342 -329 424 -131 63 -64 60 -1239 59 -589 -1 -1080 -3
-1091 -6z m-84 -81 c-13 -2 -27 0 -32 5 -6 6 3 7 23 4 28 -4 29 -6 9 -9z
m2627 -177 c-3 -3 -9 2 -12 12 -6 14 -5 15 5 6 7 -7 10 -15 7 -18z m-2918 -46
c-7 -11 -14 -18 -17 -15 -3 3 0 12 7 21 18 21 23 19 10 -6z m3027 -246 c-3
-10 -5 -4 -5 12 0 17 2 24 5 18 2 -7 2 -21 0 -30z m-20 -735 c-1 -134 -2 -25
-2 242 0 267 1 376 2 243 2 -134 2 -352 0 -485z m-3100 -20 c-1 -123 -2 -23
-2 222 0 245 1 345 2 223 2 -123 2 -323 0 -445z m10 -270 c-3 -8 -6 -5 -6 6
-1 11 2 17 5 13 3 -3 4 -12 1 -19z m0 -50 c-3 -8 -6 -5 -6 6 -1 11 2 17 5 13
3 -3 4 -12 1 -19z m3100 -50 c-3 -8 -6 -5 -6 6 -1 11 2 17 5 13 3 -3 4 -12 1
-19z m-3029 -139 c-3 -8 -7 -3 -11 10 -4 17 -3 21 5 13 5 -5 8 -16 6 -23z
m2762 -208 c0 -4 -11 -6 -25 -3 -14 2 -25 6 -25 8 0 2 11 4 25 4 14 0 25 -4
25 -9z m-2365 -81 c3 -6 -1 -7 -9 -4 -18 7 -21 14 -7 14 6 0 13 -4 16 -10z
m2062 4 c-3 -3 -12 -4 -19 -1 -8 3 -5 6 6 6 11 1 17 -2 13 -5z m148 -4 c-11
-5 -27 -9 -35 -9 -9 0 -8 4 5 9 11 5 27 9 35 9 9 0 8 -4 -5 -9z m-102 -17 c-7
-2 -19 -2 -25 0 -7 3 -2 5 12 5 14 0 19 -2 13 -5z"/>
<path d="M31565 35347 c-25 -9 -40 -40 -33 -73 8 -44 -8 -44 1234 -44 650 0
1195 3 1212 6 33 7 48 32 43 69 -7 47 45 45 -1227 47 -662 2 -1215 -1 -1229
-5z"/>
<path d="M32752 34850 c-1370 -5 -1272 -1 -1272 -62 0 -62 -77 -58 1309 -56
1397 3 1281 -3 1281 69 0 29 -5 38 -25 47 -14 7 -29 11 -33 10 -4 -2 -571 -5
-1260 -8z"/>
<path d="M30941 34424 c0 -11 3 -14 6 -6 3 7 2 16 -1 19 -3 4 -6 -2 -5 -13z"/>
<path d="M19643 34179 c37 -89 80 -370 98 -629 16 -239 6 -628 -21 -833 -25
-193 -82 -487 -109 -567 -5 -14 -14 -45 -21 -70 -21 -75 -71 -223 -89 -265
-10 -22 -24 -58 -31 -80 -7 -22 -16 -44 -21 -49 -5 -6 -9 -18 -9 -28 0 -10 -4
-18 -10 -18 -5 0 -10 -6 -10 -13 0 -18 -24 -67 -32 -67 -5 0 -8 -6 -8 -13 0
-18 -24 -67 -32 -67 -5 0 -8 -6 -8 -13 0 -7 -24 -50 -54 -95 -31 -48 -48 -82
-40 -82 7 0 68 4 136 9 68 6 161 13 206 16 l84 5 82 83 c44 45 95 100 112 122
202 261 340 701 385 1225 15 165 18 613 6 741 l-9 86 -84 62 c-46 35 -84 67
-84 71 0 5 -8 11 -18 14 -43 14 -316 307 -368 395 -10 17 -22 31 -26 31 -4 0
-8 6 -8 14 0 8 -5 18 -11 22 -7 4 -9 2 -6 -7z"/>
<path d="M39063 29983 c-10 -4 -13 -134 -13 -599 l1 -594 27 0 c53 -1 570 -18
585 -19 4 -1 -28 -70 -72 -153 -43 -84 -91 -178 -106 -208 -16 -30 -32 -62
-36 -70 -5 -8 -23 -42 -40 -75 -17 -33 -35 -61 -40 -63 -5 -2 -9 -8 -9 -14 0
-13 -59 -141 -69 -148 -17 -13 -211 -412 -205 -422 4 -7 3 -8 -4 -4 -8 4 -16
-3 -22 -19 -11 -29 -15 -4709 -4 -4764 l7 -31 1018 0 1019 0 -3 3593 -2 3592
-1010 2 c-555 0 -1016 -1 -1022 -4z m1292 -551 c42 -33 64 -66 74 -115 7 -30
11 -571 11 -1572 0 -839 2 -1531 5 -1536 4 -5 1 -9 -4 -9 -6 0 -11 6 -11 13
-1 6 -10 1 -21 -12 -11 -13 -18 -30 -15 -37 3 -8 0 -11 -10 -7 -7 3 -14 0 -14
-6 0 -7 -21 -21 -47 -32 -42 -18 -69 -20 -248 -20 -198 0 -202 1 -247 26 -26
15 -56 42 -69 63 -12 21 -24 31 -26 25 -3 -7 -9 -13 -14 -13 -6 0 -8 4 -4 10
3 5 5 701 5 1548 0 1162 3 1547 12 1573 16 48 47 87 88 112 32 20 52 22 230
27 207 5 258 -1 305 -38z m103 -97 c-3 -3 -9 2 -12 12 -6 14 -5 15 5 6 7 -7
10 -15 7 -18z m-757 -8 c-10 -9 -11 -8 -5 6 3 10 9 15 12 12 3 -3 0 -11 -7
-18z m772 -57 c-3 -11 -7 -20 -9 -20 -2 0 -4 9 -4 20 0 11 4 20 9 20 5 0 7 -9
4 -20z m-776 -452 c-1 -79 -3 -15 -3 142 0 157 2 221 3 143 2 -79 2 -207 0
-285z m770 -1820 c-1 -398 -2 -73 -2 722 0 795 1 1120 2 723 2 -398 2 -1048 0
-1445z m-790 1650 c-3 -8 -6 -5 -6 6 -1 11 2 17 5 13 3 -3 4 -12 1 -19z m-37
-12 c0 -3 -4 -8 -10 -11 -5 -3 -10 -1 -10 4 0 6 5 11 10 11 6 0 10 -2 10 -4z
m57 -1718 c-1 -310 -2 -57 -2 562 0 619 1 872 2 563 2 -310 2 -816 0 -1125z
m518 -2673 c111 -37 215 -122 263 -216 78 -156 61 -336 -44 -475 -21 -27 -51
-61 -68 -76 -36 -32 -124 -78 -148 -78 -9 0 -20 -4 -23 -10 -4 -6 -53 -10
-115 -10 -62 0 -111 4 -115 10 -3 6 -14 10 -23 10 -24 0 -112 46 -148 78 -78
69 -139 174 -152 264 -10 72 4 227 23 248 8 9 15 22 15 29 0 17 36 68 74 107
133 132 294 173 461 119z"/>
<path d="M39944 24130 c-223 -112 -269 -379 -96 -548 164 -160 443 -106 538
103 39 84 39 189 0 272 -56 123 -163 194 -301 200 -73 3 -85 1 -141 -27z"/>
<path d="M12065 25480 c-442 -24 -785 -77 -785 -121 0 -15 101 -38 235 -54
192 -22 813 -31 1145 -16 690 31 1025 89 857 147 -105 37 -261 46 -782 49
-280 2 -582 -1 -670 -5z"/>
<path d="M42085 24151 c-98 -17 -201 -95 -246 -188 -32 -65 -37 -166 -14 -244
10 -33 22 -59 27 -59 4 0 8 -6 8 -12 1 -16 59 -78 91 -97 82 -49 104 -56 189
-55 72 0 93 4 137 27 75 39 115 78 152 147 95 179 11 395 -179 463 -58 20
-115 27 -165 18z"/>
<path d="M8902 23835 c0 -16 2 -22 5 -12 2 9 2 23 0 30 -3 6 -5 -1 -5 -18z"/>
<path d="M11075 23850 c3 -5 10 -10 16 -10 5 0 9 5 9 10 0 6 -7 10 -16 10 -8
0 -12 -4 -9 -10z"/>
<path d="M13580 23850 c-13 -8 -12 -10 3 -10 9 0 17 5 17 10 0 12 -1 12 -20 0z"/>
<path d="M11128 23793 c7 -3 16 -2 19 1 4 3 -2 6 -13 5 -11 0 -14 -3 -6 -6z"/>
<path d="M10658 23763 c7 -3 16 -2 19 1 4 3 -2 6 -13 5 -11 0 -14 -3 -6 -6z"/>
<path d="M8903 23450 c0 -30 2 -43 4 -27 2 15 2 39 0 55 -2 15 -4 2 -4 -28z"/>
<path d="M23810 23248 c-38 -15 -50 -52 -50 -150 0 -81 2 -91 25 -116 l25 -27
390 0 390 0 25 27 c23 25 25 35 25 120 0 99 -10 123 -57 147 -28 14 -737 13
-773 -1z"/>
<path d="M25295 23248 c-39 -22 -44 -40 -44 -143 0 -87 2 -103 20 -125 l21
-25 390 -3 389 -3 29 30 c29 28 30 33 30 118 0 103 -12 136 -55 152 -44 16
-752 15 -780 -1z"/>
<path d="M13466 23085 c-3 -8 -1 -15 3 -15 5 0 11 7 15 15 3 8 1 15 -3 15 -5
0 -11 -7 -15 -15z"/>
<path d="M13528 23043 c7 -3 16 -2 19 1 4 3 -2 6 -13 5 -11 0 -14 -3 -6 -6z"/>
<path d="M17946 21042 c-3 -70 -13 -273 -21 -452 -8 -179 -20 -415 -25 -525
-6 -110 -15 -281 -20 -380 -5 -99 -23 -453 -40 -786 l-31 -606 67 -99 c37 -54
76 -111 88 -125 12 -14 32 -41 46 -59 85 -115 341 -383 459 -480 29 -25 59
-50 65 -55 6 -6 49 -40 96 -75 47 -35 87 -68 88 -72 2 -4 8 -8 14 -8 5 0 37
-20 71 -44 197 -138 505 -290 787 -387 294 -102 599 -160 931 -178 158 -9 243
-22 654 -96 105 -19 215 -39 245 -45 30 -5 116 -20 190 -34 182 -33 526 -95
865 -156 154 -27 318 -57 365 -65 47 -9 110 -20 140 -26 30 -5 143 -25 250
-45 107 -19 247 -44 310 -55 63 -11 176 -31 250 -44 147 -27 156 -29 440 -80
272 -50 437 -79 640 -115 96 -17 182 -33 191 -35 11 -4 50 28 115 93 122 120
171 164 254 227 36 27 67 52 70 55 10 12 189 138 275 195 50 32 109 71 133 87
24 15 47 28 53 28 5 0 9 3 9 8 0 7 3 9 83 51 26 14 47 29 47 33 0 4 4 8 10 8
8 0 203 115 290 170 8 5 31 19 50 30 40 24 91 56 187 121 37 25 75 49 83 52 8
4 38 21 65 37 28 17 61 36 75 43 14 6 27 14 30 17 3 3 92 49 197 101 106 53
191 98 189 100 -2 2 6 5 19 5 13 1 49 14 81 29 81 38 181 75 204 75 11 0 20 4
20 8 0 5 44 23 98 41 53 17 106 35 117 40 83 35 398 115 625 161 284 56 416
72 785 96 214 14 287 14 510 4 142 -7 267 -14 277 -15 10 -2 64 -9 121 -15 56
-6 129 -15 162 -20 33 -5 80 -12 105 -15 25 -3 54 -9 65 -12 20 -6 20 -6 0 18
-11 13 -32 38 -46 54 -76 85 -99 113 -99 118 0 3 -103 109 -229 235 -223 223
-354 340 -373 334 -5 -1 -7 2 -4 7 3 5 -11 21 -31 37 -21 16 -45 35 -54 44
-49 44 -89 79 -129 109 -25 19 -49 41 -53 48 -4 7 -14 13 -21 13 -7 0 -23 11
-36 25 -13 14 -27 25 -31 25 -4 0 -21 12 -36 26 -15 15 -44 37 -63 50 -42 29
-109 79 -130 96 -31 28 -90 68 -99 68 -5 0 -11 7 -15 15 -3 8 -10 15 -16 15
-8 0 -111 73 -195 138 -5 4 -32 22 -60 40 -27 17 -59 39 -70 47 -11 9 -25 13
-32 11 -7 -3 -10 1 -7 8 3 7 -3 16 -13 19 -19 7 -55 28 -63 38 -3 4 -30 21
-60 40 -30 18 -60 38 -67 44 -6 5 -34 24 -62 40 -28 17 -51 33 -51 38 0 4 -5
7 -10 7 -6 0 -47 24 -93 54 -68 45 -241 153 -297 186 -228 134 -240 140 -240
132 0 -4 -6 0 -13 8 -14 18 -113 80 -127 80 -6 0 -10 5 -10 10 0 6 -5 10 -10
10 -6 0 -44 20 -84 45 -41 25 -77 45 -79 45 -3 0 -41 21 -86 46 -115 65 -177
99 -246 135 -33 17 -62 34 -65 38 -3 3 -30 19 -60 34 -30 15 -82 43 -115 61
-54 30 -253 132 -610 315 -66 33 -125 65 -132 71 -7 5 -15 10 -18 10 -6 0
-112 51 -491 237 l-191 93 -3695 0 -3695 0 -7 -128z m9829 -1182 c3 -5 1 -10
-4 -10 -6 0 -11 5 -11 10 0 6 2 10 4 10 3 0 8 -4 11 -10z m180 -130 c-3 -5
-14 -10 -23 -9 -14 0 -13 2 3 9 27 11 27 11 20 0z m115 -56 c0 -2 -7 -4 -15
-4 -8 0 -15 4 -15 10 0 5 7 7 15 4 8 -4 15 -8 15 -10z m125 -74 c3 -5 1 -10
-4 -10 -6 0 -11 5 -11 10 0 6 2 10 4 10 3 0 8 -4 11 -10z m155 -95 c7 -8 8
-15 2 -15 -5 0 -15 7 -22 15 -7 8 -8 15 -2 15 5 0 15 -7 22 -15z m395 -263
c-3 -3 -11 0 -18 7 -9 10 -8 11 6 5 10 -3 15 -9 12 -12z m85 -62 c0 -5 -2 -10
-4 -10 -3 0 -8 5 -11 10 -3 6 -1 10 4 10 6 0 11 -4 11 -10z m95 -68 c-3 -3
-11 0 -18 7 -9 10 -8 11 6 5 10 -3 15 -9 12 -12z m245 -172 c0 -5 -4 -10 -10
-10 -5 0 -10 5 -10 10 0 6 5 10 10 10 6 0 10 -4 10 -10z m365 -280 c3 -5 1
-10 -4 -10 -6 0 -11 5 -11 10 0 6 2 10 4 10 3 0 8 -4 11 -10z m-10255 -230 c0
-5 -2 -10 -4 -10 -3 0 -8 5 -11 10 -3 6 -1 10 4 10 6 0 11 -4 11 -10z m10661
-127 c13 -16 12 -17 -3 -4 -17 13 -22 21 -14 21 2 0 10 -8 17 -17z m164 -164
c11 -17 -1 -21 -15 -4 -8 9 -8 15 -2 15 6 0 14 -5 17 -11z m-2905 -149 c0 -5
-5 -10 -11 -10 -5 0 -7 5 -4 10 3 6 8 10 11 10 2 0 4 -4 4 -10z m2073 -127
c-7 -2 -19 -2 -25 0 -7 3 -2 5 12 5 14 0 19 -2 13 -5z m514 1 c-3 -3 -12 -4
-19 -1 -8 3 -5 6 6 6 11 1 17 -2 13 -5z m-224 -11 c-24 -2 -62 -2 -85 0 -24 2
-5 4 42 4 47 0 66 -2 43 -4z m-370 -10 c-7 -2 -21 -2 -30 0 -10 3 -4 5 12 5
17 0 24 -2 18 -5z m690 0 c-7 -2 -21 -2 -30 0 -10 3 -4 5 12 5 17 0 24 -2 18
-5z m457 -17 c0 -3 -4 -8 -10 -11 -5 -3 -10 -1 -10 4 0 6 5 11 10 11 6 0 10
-2 10 -4z m85 -36 c16 -17 16 -20 3 -15 -9 4 -19 13 -22 21 -7 19 -2 18 19 -6z
m-1932 -7 c-7 -2 -21 -2 -30 0 -10 3 -4 5 12 5 17 0 24 -2 18 -5z m144 1 c-3
-3 -12 -4 -19 -1 -8 3 -5 6 6 6 11 1 17 -2 13 -5z m-84 -21 c-7 -2 -21 -2 -30
0 -10 3 -4 5 12 5 17 0 24 -2 18 -5z m-446 -59 c-3 -3 -12 -4 -19 -1 -8 3 -5
6 6 6 11 1 17 -2 13 -5z m-207 -78 c0 -2 -7 -7 -16 -10 -8 -3 -12 -2 -9 4 6
10 25 14 25 6z m-53 -22 c-3 -3 -12 -4 -19 -1 -8 3 -5 6 6 6 11 1 17 -2 13 -5z
m-402 -144 c-3 -5 -12 -10 -18 -10 -7 0 -6 4 3 10 19 12 23 12 15 0z m-675
-334 c0 -2 -7 -6 -15 -10 -8 -3 -15 -1 -15 4 0 6 7 10 15 10 8 0 15 -2 15 -4z
m-110 -60 c0 -3 -4 -8 -10 -11 -5 -3 -10 -1 -10 4 0 6 5 11 10 11 6 0 10 -2
10 -4z"/>
<path d="M43614 20840 c0 -179 2 -252 3 -162 2 89 2 235 0 325 -1 89 -3 16 -3
-163z"/>
<path d="M7302 20970 c0 -19 2 -27 5 -17 2 9 2 25 0 35 -3 9 -5 1 -5 -18z"/>
<path d="M7291 20824 c0 -11 3 -14 6 -6 3 7 2 16 -1 19 -3 4 -6 -2 -5 -13z"/>
<path d="M43611 20484 c0 -11 3 -14 6 -6 3 7 2 16 -1 19 -3 4 -6 -2 -5 -13z"/>
<path d="M46398 15673 c18 -2 45 -2 60 0 15 2 0 4 -33 4 -33 0 -45 -2 -27 -4z"/>
<path d="M46290 15650 c-8 -5 -10 -10 -5 -10 6 0 17 5 25 10 8 5 11 10 5 10
-5 0 -17 -5 -25 -10z"/>
<path d="M46265 15620 c-3 -5 -1 -10 4 -10 6 0 11 5 11 10 0 6 -2 10 -4 10 -3
0 -8 -4 -11 -10z"/>
<path d="M46680 15620 c0 -5 5 -10 11 -10 5 0 7 5 4 10 -3 6 -8 10 -11 10 -2
0 -4 -4 -4 -10z"/>
<path d="M46217 15582 c-10 -10 -17 -22 -17 -27 0 -5 9 1 21 14 12 12 19 24
17 27 -3 2 -12 -4 -21 -14z"/>
<path d="M46765 15579 c-17 -8 -16 -8 7 -4 15 3 30 1 33 -5 3 -5 12 -10 18
-10 7 0 3 7 -7 15 -22 17 -24 17 -51 4z"/>
<path d="M46842 15549 c2 -6 14 -16 26 -20 29 -11 28 -5 -4 16 -17 11 -25 12
-22 4z"/>
<path d="M46180 15514 c0 -8 5 -12 10 -9 6 3 10 10 10 16 0 5 -4 9 -10 9 -5 0
-10 -7 -10 -16z"/>
<path d="M46938 15483 c7 -3 16 -2 19 1 4 3 -2 6 -13 5 -11 0 -14 -3 -6 -6z"/>
<path d="M46971 15457 c2 -1 13 -9 24 -17 19 -14 19 -14 6 3 -7 9 -18 17 -24
17 -6 0 -8 -1 -6 -3z"/>
<path d="M47065 15360 c3 -5 11 -10 16 -10 6 0 7 5 4 10 -3 6 -11 10 -16 10
-6 0 -7 -4 -4 -10z"/>
<path d="M46142 15340 c0 -14 2 -19 5 -12 2 6 2 18 0 25 -3 6 -5 1 -5 -13z"/>
<path d="M47140 15280 c-8 -5 -12 -12 -9 -15 4 -3 12 1 19 10 14 17 11 19 -10
5z"/>
<path d="M47155 15239 c-4 -6 -5 -12 -2 -15 2 -3 7 2 10 11 7 17 1 20 -8 4z"/>
<path d="M46141 15144 c0 -11 3 -14 6 -6 3 7 2 16 -1 19 -3 4 -6 -2 -5 -13z"/>
<path d="M47100 14989 c0 -5 5 -7 10 -4 6 3 10 8 10 11 0 2 -4 4 -10 4 -5 0
-10 -5 -10 -11z"/>
<path d="M46221 14904 c0 -11 3 -14 6 -6 3 7 2 16 -1 19 -3 4 -6 -2 -5 -13z"/>
<path d="M46196 14844 c-4 -14 -5 -28 -3 -31 3 -2 8 8 11 23 4 14 5 28 3 31
-3 2 -8 -8 -11 -23z"/>
<path d="M46222 14820 c0 -14 2 -19 5 -12 2 6 2 18 0 25 -3 6 -5 1 -5 -13z"/>
<path d="M47056 14769 c-8 -42 0 -50 9 -9 4 17 5 34 2 36 -2 3 -7 -10 -11 -27z"/>
<path d="M46226 14684 c-4 -14 -5 -28 -3 -31 3 -2 8 8 11 23 4 14 5 28 3 31
-3 2 -8 -8 -11 -23z"/>
<path d="M46232 14610 c0 -14 2 -19 5 -12 2 6 2 18 0 25 -3 6 -5 1 -5 -13z"/>
<path d="M46262 14490 c0 -14 2 -19 5 -12 2 6 2 18 0 25 -3 6 -5 1 -5 -13z"/>
<path d="M46995 14440 c-4 -17 -5 -34 -2 -36 2 -3 7 10 11 27 8 42 0 50 -9 9z"/>
<path d="M46270 14439 c0 -5 5 -7 10 -4 6 3 10 8 10 11 0 2 -4 4 -10 4 -5 0
-10 -5 -10 -11z"/>
<path d="M46281 14404 c0 -11 3 -14 6 -6 3 7 2 16 -1 19 -3 4 -6 -2 -5 -13z"/>
<path d="M46311 14394 c0 -11 3 -14 6 -6 3 7 2 16 -1 19 -3 4 -6 -2 -5 -13z"/>
<path d="M46290 14364 c0 -10 5 -26 10 -34 8 -11 9 -7 4 15 -8 37 -14 45 -14
19z"/>
<path d="M46971 14264 c0 -11 3 -14 6 -6 3 7 2 16 -1 19 -3 4 -6 -2 -5 -13z"/>
<path d="M46341 14164 c0 -11 3 -14 6 -6 3 7 2 16 -1 19 -3 4 -6 -2 -5 -13z"/>
<path d="M46350 14130 c0 -5 5 -10 10 -10 6 0 10 5 10 10 0 6 -4 10 -10 10 -5
0 -10 -4 -10 -10z"/>
<path d="M46391 14074 c0 -11 3 -14 6 -6 3 7 2 16 -1 19 -3 4 -6 -2 -5 -13z"/>
<path d="M46376 14030 c8 -43 14 -51 14 -19 0 13 -5 31 -10 39 -7 11 -8 5 -4
-20z"/>
<path d="M46931 14024 c0 -11 3 -14 6 -6 3 7 2 16 -1 19 -3 4 -6 -2 -5 -13z"/>
<path d="M46891 13944 c0 -11 3 -14 6 -6 3 7 2 16 -1 19 -3 4 -6 -2 -5 -13z"/>
<path d="M46426 13825 c4 -8 8 -15 10 -15 2 0 4 7 4 15 0 8 -4 15 -10 15 -5 0
-7 -7 -4 -15z"/>
<path d="M46446 13765 c4 -22 10 -47 15 -55 10 -18 0 46 -12 75 -6 13 -6 5 -3
-20z"/>
<path d="M46892 13700 c0 -14 2 -19 5 -12 2 6 2 18 0 25 -3 6 -5 1 -5 -13z"/>
<path d="M46471 13664 c0 -11 3 -14 6 -6 3 7 2 16 -1 19 -3 4 -6 -2 -5 -13z"/>
<path d="M46881 13624 c0 -11 3 -14 6 -6 3 7 2 16 -1 19 -3 4 -6 -2 -5 -13z"/>
<path d="M46510 13500 c5 -18 12 -35 16 -39 9 -9 -7 53 -17 63 -5 5 -4 -5 1
-24z"/>
<path d="M46541 13514 c0 -11 3 -14 6 -6 3 7 2 16 -1 19 -3 4 -6 -2 -5 -13z"/>
<path d="M46532 13425 c0 -11 4 -33 8 -50 7 -27 8 -27 8 -5 0 14 -4 36 -8 50
-6 20 -8 21 -8 5z"/>
<path d="M46852 13340 c0 -14 2 -19 5 -12 2 6 2 18 0 25 -3 6 -5 1 -5 -13z"/>
<path d="M46841 13224 c0 -11 3 -14 6 -6 3 7 2 16 -1 19 -3 4 -6 -2 -5 -13z"/>
<path d="M46631 13204 c0 -11 3 -14 6 -6 3 7 2 16 -1 19 -3 4 -6 -2 -5 -13z"/>
<path d="M46612 13150 c0 -14 2 -19 5 -12 2 6 2 18 0 25 -3 6 -5 1 -5 -13z"/>
<path d="M46582 13140 c0 -14 2 -19 5 -12 2 6 2 18 0 25 -3 6 -5 1 -5 -13z"/>
<path d="M46591 13064 c0 -11 3 -14 6 -6 3 7 2 16 -1 19 -3 4 -6 -2 -5 -13z"/>
<path d="M46822 13060 c0 -14 2 -19 5 -12 2 6 2 18 0 25 -3 6 -5 1 -5 -13z"/>
<path d="M46611 13014 c0 -11 3 -14 6 -6 3 7 2 16 -1 19 -3 4 -6 -2 -5 -13z"/>
<path d="M46811 12904 c0 -11 3 -14 6 -6 3 7 2 16 -1 19 -3 4 -6 -2 -5 -13z"/>
<path d="M51770 8735 l0 -25 -3207 -1 c-1765 -1 -3211 -1 -3215 0 -10 1 -10
-35 -2 -78 l7 -31 3196 0 c1758 0 3201 4 3208 8 12 7 30 152 19 152 -3 0 -6
-11 -6 -25z"/>
<path d="M45422 8020 c0 -14 2 -19 5 -12 2 6 2 18 0 25 -3 6 -5 1 -5 -13z"/>
<path d="M45581 6664 c0 -11 3 -14 6 -6 3 7 2 16 -1 19 -3 4 -6 -2 -5 -13z"/>
<path d="M24441 5287 c-15 -74 -83 -281 -93 -285 -5 -2 -8 -9 -8 -14 0 -17
-29 -81 -86 -193 -80 -155 -99 -190 -105 -195 -3 -3 -33 -45 -65 -95 -80 -121
-197 -273 -266 -346 -25 -26 -28 -37 -29 -104 -1 -41 -2 -87 -3 -102 -1 -28 0
-28 79 -35 83 -7 475 -24 816 -35 l196 -6 6 31 c8 42 70 108 114 123 48 16
168 7 218 -16 55 -26 179 -109 245 -165 153 -129 383 -226 765 -321 435 -109
988 -163 1426 -139 219 11 340 27 514 66 315 72 453 169 431 302 -7 37 -35
112 -46 122 -3 3 -17 21 -29 40 -57 84 -221 226 -406 351 -60 40 -112 76 -115
79 -3 3 -16 11 -30 18 -14 6 -65 37 -115 67 -49 30 -97 58 -105 62 -8 4 -51
28 -95 53 -103 60 -361 190 -377 190 -7 0 -2 -7 10 -16 54 -38 71 -139 33
-193 -98 -137 -513 -235 -1001 -236 -163 0 -196 3 -274 23 -49 13 -97 28 -105
32 -9 5 -38 16 -66 26 -138 48 -363 170 -566 304 -180 120 -546 398 -624 473
-13 12 -24 22 -135 117 -105 89 -94 88 -109 17z"/>
<path d="M45756 5140 c3 -30 9 -77 14 -105 5 -27 23 -178 40 -335 37 -347 35
-329 54 -415 23 -107 48 -185 58 -185 5 0 7 -4 4 -9 -5 -8 52 -128 87 -186 70
-114 231 -284 334 -352 39 -26 230 -120 258 -127 16 -4 32 -11 35 -15 3 -3 43
-15 90 -26 83 -19 132 -20 1738 -23 1622 -2 1654 -2 1751 18 103 21 266 81
346 128 25 15 56 32 67 39 11 6 23 15 27 20 3 5 33 30 66 55 120 92 217 213
302 378 18 36 43 96 54 135 12 38 25 78 30 87 5 10 18 80 29 155 11 76 25 165
30 198 12 74 15 94 40 274 11 79 24 168 30 199 5 31 9 69 9 86 -1 29 -2 28
-11 -9 -5 -22 -12 -55 -15 -72 -3 -18 -8 -33 -12 -33 -4 0 -18 -22 -30 -50
-12 -27 -27 -50 -32 -50 -5 0 -9 -7 -9 -15 0 -14 -19 -54 -30 -65 -3 -3 -17
-21 -30 -40 -13 -19 -39 -51 -57 -70 -18 -19 -33 -38 -33 -42 0 -5 -7 -8 -15
-8 -8 0 -15 -6 -15 -12 0 -7 -14 -24 -32 -38 -17 -14 -36 -30 -42 -35 -6 -6
-27 -22 -46 -35 -19 -13 -43 -32 -53 -41 -10 -9 -35 -25 -55 -35 -20 -10 -44
-24 -52 -31 -27 -20 -216 -81 -312 -100 -88 -17 -193 -18 -1863 -18 -1443 0
-1783 2 -1840 13 -89 18 -207 51 -219 63 -6 5 -18 9 -28 9 -10 0 -18 5 -18 10
0 6 -7 10 -15 10 -20 0 -137 65 -186 104 -14 12 -43 35 -65 51 -104 81 -223
231 -289 365 -15 30 -31 63 -36 72 -5 10 -9 25 -9 33 0 8 -4 15 -10 15 -5 0
-10 10 -11 23 0 12 -7 38 -14 57 l-14 35 5 -55z"/>
</g>
</svg>
